<svg width="20" height="20" viewBox="0 0 20 20" fill="none" xmlns="http://www.w3.org/2000/svg">
<path fill-rule="evenodd" clip-rule="evenodd" d="M10 20C4.47715 20 0 15.5228 0 10C0 4.47715 4.47715 0 10 0C12.6522 0 15.1957 1.05357 17.0711 2.92893C18.9464 4.8043 20 7.34784 20 10C20 15.5228 15.5228 20 10 20ZM15.92 10.38C15.8724 10.5028 15.801 10.6149 15.71 10.71L11.71 14.71C11.5222 14.8993 11.2666 15.0058 11 15.0058C10.7334 15.0058 10.4778 14.8993 10.29 14.71C10.1007 14.5222 9.9942 14.2666 9.9942 14C9.9942 13.7334 10.1007 13.4778 10.29 13.29L12.59 11H5C4.44772 11 4 10.5523 4 10C4 9.44771 4.44772 9 5 9H12.59L10.29 6.71C10.0363 6.45634 9.93728 6.08663 10.0301 5.74012C10.123 5.39362 10.3936 5.12297 10.7401 5.03012C11.0866 4.93728 11.4563 5.03634 11.71 5.29L15.71 9.29C15.801 9.3851 15.8724 9.49725 15.92 9.62C16.02 9.86346 16.02 10.1365 15.92 10.38ZM10 2C14.4183 2 18 5.58172 18 10C18 12.1217 17.1571 14.1566 15.6569 15.6569C14.1566 17.1571 12.1217 18 10 18C5.58172 18 2 14.4183 2 10C2 5.58172 5.58172 2 10 2Z" fill="#AAAAAA"/>
</svg>
