<svg width="29" height="29" viewBox="0 0 29 29" fill="none" xmlns="http://www.w3.org/2000/svg">
<path fill-rule="evenodd" clip-rule="evenodd" d="M14.9594 28.081C7.64816 28.081 1.72119 22.154 1.72119 14.8427C1.72119 7.53146 7.64816 1.60449 14.9594 1.60449C22.2707 1.60449 28.1977 7.53146 28.1977 14.8427C28.1977 22.154 22.2707 28.081 14.9594 28.081ZM14.9594 25.674C20.9414 25.674 25.7907 20.8247 25.7907 14.8427C25.7907 8.86078 20.9414 4.01145 14.9594 4.01145C8.97748 4.01145 4.12815 8.86078 4.12815 14.8427C4.12815 20.8247 8.97748 25.674 14.9594 25.674ZM10.9965 20.5076L14.9594 16.5447L18.9224 20.5076L20.6243 18.8057L16.6614 14.8427L20.6243 10.8798L18.9224 9.17784L14.9594 13.1408L10.9965 9.17784L9.29454 10.8798L13.2575 14.8427L9.29454 18.8057L10.9965 20.5076Z" fill="#BEAA76"/>
</svg>
