<svg width="132" height="171" viewBox="0 0 132 171" fill="none" xmlns="http://www.w3.org/2000/svg">
<rect x="1" y="0.5" width="130" height="170" rx="3.5" fill="white"/>
<path d="M78.1987 102.167H53.7939C52.6109 102.167 51.4763 101.697 50.6398 100.86C49.8033 100.023 49.3333 98.8884 49.3333 97.7051V73.2949C49.3333 72.1116 49.8033 70.9768 50.6398 70.1401C51.4763 69.3034 52.6109 68.8333 53.7939 68.8333H78.1987C79.3818 68.8333 80.5163 69.3034 81.3528 70.1401C82.1893 70.9768 82.6593 72.1116 82.6593 73.2949V97.7051C82.6593 98.8884 82.1893 100.023 81.3528 100.86C80.5163 101.697 79.3818 102.167 78.1987 102.167ZM53.7939 71.3974C53.2908 71.3974 52.8083 71.5974 52.4525 71.9532C52.0967 72.309 51.8969 72.7917 51.8969 73.2949V97.7051C51.8969 98.2084 52.0967 98.691 52.4525 99.0468C52.8083 99.4027 53.2908 99.6026 53.7939 99.6026H78.1987C78.7019 99.6026 79.1844 99.4027 79.5401 99.0468C79.8959 98.691 80.0958 98.2084 80.0958 97.7051V73.2949C80.0958 72.7917 79.8959 72.309 79.5401 71.9532C79.1844 71.5974 78.7019 71.3974 78.1987 71.3974H53.7939Z" fill="#AAAAAA"/>
<path d="M50.6151 97.141C50.4305 97.1405 50.2481 97.1005 50.0801 97.0239C49.9122 96.9473 49.7624 96.8357 49.641 96.6966C49.5317 96.5677 49.4489 96.4185 49.3974 96.2576C49.346 96.0966 49.3268 95.927 49.3411 95.7586C49.3554 95.5902 49.4028 95.4263 49.4807 95.2763C49.5586 95.1263 49.6653 94.9932 49.7948 94.8846L58.545 87.5C59.1983 86.9485 60.0345 86.6619 60.8887 86.6967C61.7429 86.7315 62.5531 87.0852 63.1593 87.6881L67.3123 91.8419C67.4671 91.9743 67.664 92.0471 67.8677 92.0471C68.0714 92.0471 68.2684 91.9743 68.4231 91.8419L72.4564 88.9188C73.0541 88.4586 73.7872 88.2091 74.5414 88.2091C75.2957 88.2091 76.0288 88.4586 76.6264 88.9188L82.1808 93.3462C82.3132 93.4517 82.4235 93.5822 82.5055 93.7304C82.5875 93.8786 82.6395 94.0414 82.6585 94.2097C82.6775 94.3779 82.6633 94.5483 82.6165 94.711C82.5697 94.8738 82.4913 95.0257 82.3859 95.1581C82.2804 95.2906 82.1498 95.4009 82.0017 95.4829C81.8536 95.5649 81.6908 95.6169 81.5225 95.636C81.3543 95.655 81.184 95.6407 81.0213 95.594C80.8586 95.5472 80.7067 95.4688 80.5743 95.3633L75.0371 90.9188C74.8876 90.8038 74.7044 90.7414 74.5158 90.7414C74.3272 90.7414 74.144 90.8038 73.9946 90.9188L69.9613 94.047C69.3048 94.5401 68.4927 94.7804 67.6737 94.7239C66.8547 94.6674 66.0833 94.3179 65.5007 93.7393L61.3478 89.5C61.1908 89.3583 60.9868 89.2798 60.7753 89.2798C60.5637 89.2798 60.3598 89.3583 60.2027 89.5L51.4354 96.8504C51.2065 97.044 50.9148 97.1474 50.6151 97.141ZM71.1234 85.0727C70.1939 85.0727 69.2852 84.797 68.5123 84.2804C67.7394 83.7639 67.1371 83.0297 66.7813 82.1708C66.4256 81.3118 66.3325 80.3666 66.5139 79.4547C66.6952 78.5428 67.1428 77.7052 67.8001 77.0478C68.4574 76.3904 69.2948 75.9427 70.2065 75.7613C71.1182 75.5799 72.0632 75.673 72.9219 76.0288C73.7807 76.3846 74.5147 76.9871 75.0311 77.7602C75.5476 78.5332 75.8232 79.4421 75.8232 80.3718C75.8232 81.6186 75.3281 82.8142 74.4467 83.6958C73.5653 84.5774 72.3699 85.0727 71.1234 85.0727ZM71.1234 78.2351C70.7009 78.2351 70.2878 78.3604 69.9365 78.5952C69.5852 78.83 69.3114 79.1637 69.1497 79.5541C68.988 79.9446 68.9457 80.3742 69.0282 80.7887C69.1106 81.2032 69.3141 81.5839 69.6128 81.8827C69.9116 82.1816 70.2922 82.3851 70.7066 82.4675C71.121 82.55 71.5506 82.5076 71.9409 82.3459C72.3313 82.1842 72.6649 81.9103 72.8996 81.5589C73.1344 81.2075 73.2597 80.7944 73.2597 80.3718C73.2597 79.8051 73.0346 79.2616 72.634 78.8609C72.2333 78.4602 71.69 78.2351 71.1234 78.2351Z" fill="#AAAAAA"/>
<rect x="1" y="0.5" width="130" height="170" rx="3.5" stroke="#AAAAAA"/>
</svg>
